<?xml version="1.0" encoding="UTF-8"?>
<svg xmlns="http://www.w3.org/2000/svg" xmlns:xlink="http://www.w3.org/1999/xlink" width="20pt" height="20pt" viewBox="0 0 20 20" version="1.1">
<g id="surface4149930">
<path style=" stroke:none;fill-rule:nonzero;fill:rgb(100%,100%,100%);fill-opacity:1;" d="M 10 1.667969 C 5.398438 1.667969 1.667969 5.398438 1.667969 10 C 1.667969 14.175781 4.746094 17.628906 8.753906 18.230469 L 8.753906 12.207031 L 6.691406 12.207031 L 6.691406 10.015625 L 8.753906 10.015625 L 8.753906 8.558594 C 8.753906 6.148438 9.929688 5.085938 11.9375 5.085938 C 12.898438 5.085938 13.402344 5.160156 13.644531 5.191406 L 13.644531 7.101562 L 12.277344 7.101562 C 11.425781 7.101562 11.128906 7.910156 11.128906 8.820312 L 11.128906 10.015625 L 13.625 10.015625 L 13.285156 12.207031 L 11.128906 12.207031 L 11.128906 18.246094 C 15.195312 17.695312 18.332031 14.21875 18.332031 10 C 18.332031 5.398438 14.601562 1.667969 10 1.667969 Z M 10 1.667969 "/>
</g>
</svg>
