<?xml version="1.0" encoding="UTF-8"?>
<svg xmlns="http://www.w3.org/2000/svg" xmlns:xlink="http://www.w3.org/1999/xlink" width="20pt" height="20pt" viewBox="0 0 20 20" version="1.1">
<g id="surface4309025">
<path style=" stroke:none;fill-rule:nonzero;fill:rgb(100%,100%,100%);fill-opacity:1;" d="M 10 1.667969 C 5.398438 1.667969 1.667969 5.398438 1.667969 10 C 1.667969 14.601562 5.398438 18.332031 10 18.332031 C 14.601562 18.332031 18.332031 14.601562 18.332031 10 C 18.332031 5.398438 14.601562 1.667969 10 1.667969 Z M 10 3.332031 C 13.675781 3.332031 16.667969 6.324219 16.667969 10 C 16.667969 10.390625 16.628906 10.773438 16.5625 11.144531 C 16.355469 11.101562 16.054688 11.046875 15.703125 11.042969 C 15.441406 11.039062 15.117188 11.082031 14.84375 11.121094 C 14.9375 10.832031 15 10.511719 15 10.183594 C 15 9.382812 14.609375 8.636719 13.984375 8.019531 C 14.15625 7.378906 14.324219 6.28125 13.878906 5.832031 C 12.5625 5.832031 11.832031 6.773438 11.796875 6.824219 C 11.390625 6.726562 10.96875 6.667969 10.519531 6.667969 C 9.945312 6.667969 9.394531 6.769531 8.878906 6.925781 L 9.035156 6.796875 C 9.035156 6.796875 8.304688 5.78125 6.953125 5.78125 C 6.480469 6.257812 6.695312 7.460938 6.875 8.074219 C 6.238281 8.683594 5.832031 9.402344 5.832031 10.183594 C 5.832031 10.457031 5.898438 10.714844 5.964844 10.964844 C 5.734375 10.9375 4.898438 10.859375 4.558594 10.859375 C 4.253906 10.859375 3.785156 10.929688 3.410156 11.015625 C 3.359375 10.683594 3.332031 10.34375 3.332031 10 C 3.332031 6.324219 6.324219 3.332031 10 3.332031 Z M 4.558594 11.066406 C 4.886719 11.066406 5.886719 11.183594 6.015625 11.199219 C 6.03125 11.242188 6.046875 11.285156 6.066406 11.328125 C 5.710938 11.296875 5.015625 11.246094 4.558594 11.300781 C 4.25 11.335938 3.859375 11.449219 3.515625 11.535156 C 3.488281 11.433594 3.457031 11.332031 3.4375 11.222656 C 3.800781 11.144531 4.28125 11.066406 4.558594 11.066406 Z M 15.703125 11.25 C 16.035156 11.253906 16.335938 11.308594 16.535156 11.355469 C 16.527344 11.410156 16.496094 11.453125 16.484375 11.511719 C 16.273438 11.460938 15.925781 11.390625 15.519531 11.378906 C 15.324219 11.378906 15.011719 11.386719 14.738281 11.40625 C 14.753906 11.378906 14.757812 11.355469 14.765625 11.328125 C 15.050781 11.289062 15.410156 11.246094 15.703125 11.25 Z M 5.078125 11.484375 C 5.546875 11.488281 5.988281 11.519531 6.171875 11.535156 C 6.609375 12.351562 7.492188 12.953125 8.855469 13.203125 C 8.519531 13.386719 8.21875 13.648438 7.996094 13.957031 C 7.800781 13.972656 7.59375 13.984375 7.394531 13.984375 C 6.816406 13.984375 6.457031 13.464844 6.144531 13.019531 C 5.832031 12.574219 5.449219 12.527344 5.234375 12.5 C 5.015625 12.472656 4.941406 12.597656 5.050781 12.683594 C 5.6875 13.171875 5.914062 13.75 6.171875 14.269531 C 6.402344 14.738281 6.886719 15 7.421875 15 L 7.527344 15 C 7.507812 15.089844 7.5 15.175781 7.5 15.261719 L 7.5 16.171875 C 5.574219 15.394531 4.113281 13.75 3.566406 11.71875 C 3.910156 11.632812 4.292969 11.546875 4.582031 11.511719 C 4.714844 11.492188 4.886719 11.480469 5.078125 11.484375 Z M 15.519531 11.589844 C 15.894531 11.597656 16.226562 11.667969 16.433594 11.71875 C 15.972656 13.445312 14.839844 14.878906 13.332031 15.753906 L 13.332031 15.261719 C 13.332031 14.550781 12.773438 13.640625 11.980469 13.203125 C 13.296875 12.960938 14.15625 12.386719 14.609375 11.613281 C 14.925781 11.589844 15.296875 11.582031 15.519531 11.589844 Z M 10.417969 15 C 10.644531 15 10.832031 15.1875 10.832031 15.417969 L 10.832031 16.613281 C 10.558594 16.648438 10.28125 16.667969 10 16.667969 L 10 15.417969 C 10 15.1875 10.1875 15 10.417969 15 Z M 8.75 15.832031 C 8.976562 15.832031 9.167969 16.023438 9.167969 16.25 L 9.167969 16.613281 C 8.886719 16.578125 8.605469 16.527344 8.332031 16.457031 L 8.332031 16.25 C 8.332031 16.023438 8.523438 15.832031 8.75 15.832031 Z M 12.082031 15.832031 C 12.285156 15.832031 12.460938 15.980469 12.5 16.171875 C 12.230469 16.28125 11.953125 16.382812 11.667969 16.457031 L 11.667969 16.25 C 11.667969 16.023438 11.855469 15.832031 12.082031 15.832031 Z M 12.082031 15.832031 "/>
</g>
</svg>
