<?xml version="1.0" encoding="UTF-8"?>
<svg xmlns="http://www.w3.org/2000/svg" xmlns:xlink="http://www.w3.org/1999/xlink" width="20pt" height="20pt" viewBox="0 0 20 20" version="1.1">
<g id="surface4149869">
<path style=" stroke:none;fill-rule:nonzero;fill:rgb(100%,100%,100%);fill-opacity:1;" d="M 6.667969 2.5 C 4.367188 2.5 2.5 4.367188 2.5 6.667969 L 2.5 13.332031 C 2.5 15.632812 4.367188 17.5 6.667969 17.5 L 13.332031 17.5 C 15.632812 17.5 17.5 15.632812 17.5 13.332031 L 17.5 6.667969 C 17.5 4.367188 15.632812 2.5 13.332031 2.5 Z M 15 4.167969 C 15.460938 4.167969 15.832031 4.539062 15.832031 5 C 15.832031 5.460938 15.460938 5.832031 15 5.832031 C 14.539062 5.832031 14.167969 5.460938 14.167969 5 C 14.167969 4.539062 14.539062 4.167969 15 4.167969 Z M 10 5.832031 C 12.300781 5.832031 14.167969 7.699219 14.167969 10 C 14.167969 12.300781 12.300781 14.167969 10 14.167969 C 7.699219 14.167969 5.832031 12.300781 5.832031 10 C 5.832031 7.699219 7.699219 5.832031 10 5.832031 Z M 10 7.5 C 8.621094 7.5 7.5 8.621094 7.5 10 C 7.5 11.378906 8.621094 12.5 10 12.5 C 11.378906 12.5 12.5 11.378906 12.5 10 C 12.5 8.621094 11.378906 7.5 10 7.5 Z M 10 7.5 "/>
</g>
</svg>
