<?xml version="1.0" encoding="UTF-8"?>
<svg xmlns="http://www.w3.org/2000/svg" xmlns:xlink="http://www.w3.org/1999/xlink" width="20pt" height="20pt" viewBox="0 0 20 20" version="1.1">
<g id="surface4309361">
<path style=" stroke:none;fill-rule:nonzero;fill:rgb(100%,73.333333%,0.392157%);fill-opacity:1;" d="M 16.917969 2.488281 C 16.679688 2.496094 16.457031 2.566406 16.261719 2.644531 C 16.082031 2.714844 15.441406 2.984375 14.414062 3.414062 C 13.386719 3.84375 12.03125 4.414062 10.582031 5.023438 C 7.683594 6.242188 4.429688 7.613281 2.761719 8.316406 C 2.703125 8.339844 2.46875 8.410156 2.214844 8.605469 C 1.957031 8.804688 1.671875 9.230469 1.671875 9.699219 C 1.671875 10.074219 1.859375 10.457031 2.085938 10.675781 C 2.3125 10.898438 2.542969 11 2.734375 11.074219 C 3.382812 11.332031 5.324219 12.109375 5.789062 12.296875 C 5.953125 12.785156 6.65625 14.890625 6.824219 15.417969 L 6.820312 15.417969 C 6.941406 15.792969 7.054688 16.035156 7.214844 16.242188 C 7.296875 16.34375 7.390625 16.433594 7.507812 16.507812 C 7.554688 16.535156 7.601562 16.558594 7.652344 16.578125 C 7.660156 16.582031 7.667969 16.582031 7.675781 16.582031 L 7.65625 16.578125 C 7.667969 16.585938 7.683594 16.59375 7.695312 16.597656 C 7.722656 16.605469 7.738281 16.605469 7.769531 16.613281 C 7.882812 16.648438 8 16.671875 8.105469 16.671875 C 8.558594 16.671875 8.835938 16.425781 8.835938 16.425781 L 8.851562 16.414062 L 10.808594 14.757812 L 13.203125 16.972656 C 13.25 17.035156 13.589844 17.5 14.386719 17.5 C 14.859375 17.5 15.234375 17.265625 15.472656 17.019531 C 15.710938 16.773438 15.859375 16.523438 15.929688 16.183594 L 15.929688 16.179688 C 15.984375 15.90625 18.277344 4.386719 18.277344 4.386719 L 18.273438 4.40625 C 18.34375 4.089844 18.363281 3.78125 18.28125 3.46875 C 18.195312 3.152344 17.96875 2.847656 17.695312 2.6875 C 17.417969 2.523438 17.160156 2.476562 16.917969 2.488281 Z M 16.589844 4.3125 C 16.5 4.765625 14.445312 15.089844 14.316406 15.734375 L 10.859375 12.535156 L 8.519531 14.511719 L 9.167969 11.980469 C 9.167969 11.980469 13.636719 7.457031 13.90625 7.191406 C 14.121094 6.980469 14.167969 6.90625 14.167969 6.835938 C 14.167969 6.738281 14.117188 6.667969 14 6.667969 C 13.894531 6.667969 13.753906 6.765625 13.679688 6.8125 C 12.726562 7.40625 8.667969 9.71875 6.671875 10.855469 C 6.550781 10.808594 4.746094 10.082031 3.777344 9.695312 C 5.503906 8.96875 8.46875 7.722656 11.226562 6.5625 C 12.675781 5.953125 14.035156 5.382812 15.058594 4.949219 C 15.921875 4.589844 16.375 4.402344 16.589844 4.3125 Z M 14.292969 15.855469 L 14.296875 15.855469 C 14.296875 15.855469 14.292969 15.859375 14.292969 15.859375 C 14.292969 15.855469 14.292969 15.859375 14.292969 15.855469 Z M 14.292969 15.855469 "/>
</g>
</svg>
