<?xml version="1.0" encoding="UTF-8"?>
<svg xmlns="http://www.w3.org/2000/svg" xmlns:xlink="http://www.w3.org/1999/xlink" width="120pt" height="120pt" viewBox="0 0 120 120" version="1.1">
<g id="surface25710026">
<path style=" stroke:none;fill-rule:nonzero;fill:rgb(100%,100%,100%);fill-opacity:1;" d="M 100.617188 15.9375 C 99.316406 15.996094 98.105469 16.375 97.039062 16.804688 C 96.039062 17.207031 92.222656 18.84375 86.210938 21.421875 C 80.195312 24.003906 72.226562 27.421875 63.726562 31.078125 C 46.726562 38.386719 27.617188 46.617188 17.828125 50.828125 C 17.460938 50.988281 16.175781 51.398438 14.8125 52.460938 C 13.449219 53.523438 12 55.730469 12 58.1875 C 12 60.167969 12.945312 62.136719 14.132812 63.3125 C 15.320312 64.488281 16.578125 65.066406 17.65625 65.507812 C 21.566406 67.101562 33.6875 72.0625 35.976562 73 C 36.78125 75.46875 41.171875 88.890625 42.1875 92.179688 C 42.859375 94.351562 43.496094 95.710938 44.328125 96.789062 C 44.742188 97.328125 45.226562 97.800781 45.8125 98.171875 C 46.046875 98.320312 46.304688 98.433594 46.5625 98.539062 L 46.578125 98.546875 C 46.636719 98.570312 46.6875 98.613281 46.75 98.632812 C 46.863281 98.671875 46.941406 98.675781 47.09375 98.710938 C 47.703125 98.90625 48.316406 99.03125 48.867188 99.03125 C 51.207031 99.03125 52.640625 97.742188 52.640625 97.742188 L 52.726562 97.679688 L 64.765625 87.265625 L 79.367188 101.078125 C 79.574219 101.367188 81.488281 104 85.71875 104 C 88.230469 104 90.222656 102.738281 91.5 101.398438 C 92.777344 100.058594 93.574219 98.648438 93.914062 96.875 L 93.914062 96.867188 C 94.230469 95.191406 107.6875 26.109375 107.6875 26.109375 L 107.664062 26.203125 C 108.058594 24.40625 108.160156 22.730469 107.726562 21.078125 C 107.292969 19.425781 106.148438 17.84375 104.726562 16.992188 C 103.308594 16.140625 101.917969 15.878906 100.617188 15.9375 Z M 99.867188 24.296875 C 99.847656 24.414062 99.882812 24.355469 99.851562 24.492188 L 99.835938 24.585938 C 99.835938 24.585938 86.546875 92.785156 86.054688 95.382812 C 86.089844 95.1875 85.925781 95.578125 85.757812 95.8125 C 85.519531 95.648438 85.03125 95.4375 85.03125 95.4375 L 84.953125 95.351562 L 65.007812 76.484375 L 50.90625 88.671875 L 55.101562 71.875 C 55.101562 71.875 81.328125 44.726562 82.90625 43.148438 C 84.179688 41.882812 84.445312 41.445312 84.445312 41.007812 C 84.445312 40.421875 84.140625 40 83.460938 40 C 82.847656 40 82.027344 40.59375 81.585938 40.875 C 75.855469 44.527344 50.6875 59.195312 39.40625 65.757812 C 37.613281 65.023438 25.160156 59.925781 20.9375 58.203125 C 20.96875 58.1875 20.957031 58.195312 20.992188 58.179688 C 30.785156 53.96875 49.886719 45.738281 66.882812 38.429688 C 75.382812 34.773438 83.355469 31.351562 89.367188 28.773438 C 95.289062 26.234375 99.402344 24.488281 99.867188 24.296875 Z M 99.867188 24.296875 "/>
</g>
</svg>
